<svg width="34" height="34" viewBox="0 0 34 34" fill="none" xmlns="http://www.w3.org/2000/svg">
    <path fill-rule="evenodd" clip-rule="evenodd" d="M20.5354 15.7219H25.1484C25.8479 15.7219 26.3975 15.1436 26.3975 14.4463C26.3975 13.7319 25.8479 13.1707 25.1484 13.1707H20.5354C19.8359 13.1707 19.2863 13.7319 19.2863 14.4463C19.2863 15.1436 19.8359 15.7219 20.5354 15.7219ZM30.6275 6.8792C31.6434 6.8792 32.3096 7.23637 32.9757 8.01876C33.6419 8.80115 33.7584 9.92371 33.6086 10.9425L32.0265 22.1001C31.7267 24.2449 29.9281 25.8249 27.8131 25.8249H9.6439C7.42896 25.8249 5.59705 24.0918 5.41386 21.8467L3.88172 3.30571L1.36702 2.86349C0.700869 2.74443 0.234566 2.0811 0.351142 1.40076C0.467717 0.705116 1.11721 0.244186 1.80001 0.347938L5.77192 0.958542C6.33814 1.06229 6.75448 1.53683 6.80445 2.11512L7.12087 5.92502C7.17083 6.47099 7.60382 6.8792 8.13674 6.8792H30.6275ZM9.37709 28.5131C7.97818 28.5131 6.84573 29.6697 6.84573 31.0984C6.84573 32.5101 7.97818 33.6667 9.37709 33.6667C10.7593 33.6667 11.8918 32.5101 11.8918 31.0984C11.8918 29.6697 10.7593 28.5131 9.37709 28.5131ZM28.1125 28.5131C26.7136 28.5131 25.5811 29.6697 25.5811 31.0984C25.5811 32.5101 26.7136 33.6667 28.1125 33.6667C29.4947 33.6667 30.6272 32.5101 30.6272 31.0984C30.6272 29.6697 29.4947 28.5131 28.1125 28.5131Z" fill="white"/>
</svg>