<svg width="34" height="34" viewBox="0 0 34 34" fill="none" xmlns="http://www.w3.org/2000/svg">
    <path fill-rule="evenodd" clip-rule="evenodd" d="M4.56659 0.333374H10.1999C12.5499 0.333374 14.4333 2.25004 14.4333 4.60171V10.2834C14.4333 12.65 12.5499 14.55 10.1999 14.55H4.56659C2.23325 14.55 0.333252 12.65 0.333252 10.2834V4.60171C0.333252 2.25004 2.23325 0.333374 4.56659 0.333374ZM4.56659 19.4496H10.1999C12.5499 19.4496 14.4333 21.3512 14.4333 23.7179V29.3996C14.4333 31.7496 12.5499 33.6662 10.1999 33.6662H4.56659C2.23325 33.6662 0.333252 31.7496 0.333252 29.3996V23.7179C0.333252 21.3512 2.23325 19.4496 4.56659 19.4496ZM29.4334 0.333374H23.8C21.45 0.333374 19.5667 2.25004 19.5667 4.60171V10.2834C19.5667 12.65 21.45 14.55 23.8 14.55H29.4334C31.7667 14.55 33.6667 12.65 33.6667 10.2834V4.60171C33.6667 2.25004 31.7667 0.333374 29.4334 0.333374ZM23.8 19.4496H29.4334C31.7667 19.4496 33.6667 21.3512 33.6667 23.7179V29.3996C33.6667 31.7496 31.7667 33.6662 29.4334 33.6662H23.8C21.45 33.6662 19.5667 31.7496 19.5667 29.3996V23.7179C19.5667 21.3512 21.45 19.4496 23.8 19.4496Z" fill="white"/>
</svg>